<mxfile host="app.diagrams.net" modified="2023-12-28T17:26:04.954Z" agent="Mozilla/5.0 (Windows NT 10.0; Win64; x64) AppleWebKit/537.36 (KHTML, like Gecko) Chrome/120.0.0.0 Safari/537.36" etag="h9Q5prbiblghPXtTZt0K" version="22.1.15" type="device">
  <diagram name="Page-1" id="g18AIovqTxfNIAlZljRT">
    <mxGraphModel dx="1318" dy="1022" grid="1" gridSize="10" guides="1" tooltips="1" connect="1" arrows="1" fold="1" page="1" pageScale="1" pageWidth="827" pageHeight="1169" math="0" shadow="0">
      <root>
        <mxCell id="0" />
        <mxCell id="1" parent="0" />
        <mxCell id="tASh4pqp3kbe50ULKyUL-3" style="edgeStyle=orthogonalEdgeStyle;rounded=0;orthogonalLoop=1;jettySize=auto;html=1;exitX=0.5;exitY=1;exitDx=0;exitDy=0;entryX=0.5;entryY=0;entryDx=0;entryDy=0;" edge="1" parent="1" source="tASh4pqp3kbe50ULKyUL-1" target="tASh4pqp3kbe50ULKyUL-2">
          <mxGeometry relative="1" as="geometry" />
        </mxCell>
        <mxCell id="tASh4pqp3kbe50ULKyUL-1" value="App Opened" style="rounded=0;whiteSpace=wrap;html=1;" vertex="1" parent="1">
          <mxGeometry x="360" y="40" width="120" height="60" as="geometry" />
        </mxCell>
        <mxCell id="tASh4pqp3kbe50ULKyUL-7" style="edgeStyle=orthogonalEdgeStyle;rounded=0;orthogonalLoop=1;jettySize=auto;html=1;exitX=0.5;exitY=1;exitDx=0;exitDy=0;" edge="1" parent="1" source="tASh4pqp3kbe50ULKyUL-2" target="tASh4pqp3kbe50ULKyUL-6">
          <mxGeometry relative="1" as="geometry" />
        </mxCell>
        <mxCell id="tASh4pqp3kbe50ULKyUL-2" value="GetImages() - pobiera tylko definicje obrazów" style="rounded=0;whiteSpace=wrap;html=1;fillColor=#d5e8d4;strokeColor=#82b366;" vertex="1" parent="1">
          <mxGeometry x="320" y="160" width="200" height="110" as="geometry" />
        </mxCell>
        <mxCell id="tASh4pqp3kbe50ULKyUL-9" style="edgeStyle=orthogonalEdgeStyle;rounded=0;orthogonalLoop=1;jettySize=auto;html=1;exitX=1;exitY=0.5;exitDx=0;exitDy=0;" edge="1" parent="1" source="tASh4pqp3kbe50ULKyUL-6" target="tASh4pqp3kbe50ULKyUL-10">
          <mxGeometry relative="1" as="geometry">
            <mxPoint x="690" y="390" as="targetPoint" />
          </mxGeometry>
        </mxCell>
        <mxCell id="tASh4pqp3kbe50ULKyUL-6" value="GetThumbnails(size) - pobiera konkretne rozmiary wygenerowanych minaturek" style="rounded=0;whiteSpace=wrap;html=1;fillColor=#d5e8d4;strokeColor=#82b366;" vertex="1" parent="1">
          <mxGeometry x="315" y="340" width="210" height="100" as="geometry" />
        </mxCell>
        <mxCell id="tASh4pqp3kbe50ULKyUL-10" value="User changes thumbnails Size" style="shape=or;whiteSpace=wrap;html=1;fillColor=#dae8fc;strokeColor=#6c8ebf;" vertex="1" parent="1">
          <mxGeometry x="650" y="340" width="110" height="100" as="geometry" />
        </mxCell>
        <mxCell id="tASh4pqp3kbe50ULKyUL-13" value="" style="endArrow=classic;html=1;rounded=0;exitX=1;exitY=0.5;exitDx=0;exitDy=0;exitPerimeter=0;" edge="1" parent="1" source="tASh4pqp3kbe50ULKyUL-10">
          <mxGeometry width="50" height="50" relative="1" as="geometry">
            <mxPoint x="810" y="390" as="sourcePoint" />
            <mxPoint x="420" y="320" as="targetPoint" />
            <Array as="points">
              <mxPoint x="860" y="390" />
              <mxPoint x="860" y="350" />
              <mxPoint x="860" y="320" />
            </Array>
          </mxGeometry>
        </mxCell>
        <mxCell id="tASh4pqp3kbe50ULKyUL-25" value="In future it should not fetch all data with change but just needed - data hash&amp;nbsp;" style="edgeLabel;html=1;align=center;verticalAlign=middle;resizable=0;points=[];" vertex="1" connectable="0" parent="tASh4pqp3kbe50ULKyUL-13">
          <mxGeometry x="0.0701" y="-2" relative="1" as="geometry">
            <mxPoint x="-53" as="offset" />
          </mxGeometry>
        </mxCell>
        <mxCell id="tASh4pqp3kbe50ULKyUL-18" style="edgeStyle=orthogonalEdgeStyle;rounded=0;orthogonalLoop=1;jettySize=auto;html=1;exitX=1;exitY=0.5;exitDx=0;exitDy=0;exitPerimeter=0;entryX=0;entryY=0.5;entryDx=0;entryDy=0;" edge="1" parent="1" source="tASh4pqp3kbe50ULKyUL-14" target="tASh4pqp3kbe50ULKyUL-17">
          <mxGeometry relative="1" as="geometry" />
        </mxCell>
        <mxCell id="tASh4pqp3kbe50ULKyUL-14" value="User Clicks Image" style="shape=or;whiteSpace=wrap;html=1;fillColor=#dae8fc;strokeColor=#6c8ebf;" vertex="1" parent="1">
          <mxGeometry x="650" y="480" width="80" height="80" as="geometry" />
        </mxCell>
        <mxCell id="tASh4pqp3kbe50ULKyUL-16" value="" style="endArrow=classic;html=1;rounded=0;exitX=1;exitY=0.5;exitDx=0;exitDy=0;entryX=0;entryY=0.5;entryDx=0;entryDy=0;entryPerimeter=0;" edge="1" parent="1" source="tASh4pqp3kbe50ULKyUL-6" target="tASh4pqp3kbe50ULKyUL-14">
          <mxGeometry width="50" height="50" relative="1" as="geometry">
            <mxPoint x="570" y="460" as="sourcePoint" />
            <mxPoint x="620" y="410" as="targetPoint" />
          </mxGeometry>
        </mxCell>
        <mxCell id="tASh4pqp3kbe50ULKyUL-17" value="getFullImage(id) - pobiera sam obiekt zdjęcia z danymi" style="rounded=0;whiteSpace=wrap;html=1;fillColor=#d5e8d4;strokeColor=#82b366;" vertex="1" parent="1">
          <mxGeometry x="790" y="490" width="320" height="60" as="geometry" />
        </mxCell>
        <mxCell id="tASh4pqp3kbe50ULKyUL-22" value="" style="edgeStyle=orthogonalEdgeStyle;rounded=0;orthogonalLoop=1;jettySize=auto;html=1;" edge="1" parent="1" source="tASh4pqp3kbe50ULKyUL-19" target="tASh4pqp3kbe50ULKyUL-21">
          <mxGeometry relative="1" as="geometry" />
        </mxCell>
        <mxCell id="tASh4pqp3kbe50ULKyUL-19" value="User Adds New Image" style="shape=or;whiteSpace=wrap;html=1;fillColor=#dae8fc;strokeColor=#6c8ebf;" vertex="1" parent="1">
          <mxGeometry x="650" y="575" width="80" height="80" as="geometry" />
        </mxCell>
        <mxCell id="tASh4pqp3kbe50ULKyUL-20" value="" style="endArrow=classic;html=1;rounded=0;exitX=1;exitY=0.5;exitDx=0;exitDy=0;entryX=0;entryY=0.5;entryDx=0;entryDy=0;entryPerimeter=0;" edge="1" parent="1" source="tASh4pqp3kbe50ULKyUL-6" target="tASh4pqp3kbe50ULKyUL-19">
          <mxGeometry width="50" height="50" relative="1" as="geometry">
            <mxPoint x="535" y="400" as="sourcePoint" />
            <mxPoint x="660" y="530" as="targetPoint" />
          </mxGeometry>
        </mxCell>
        <mxCell id="tASh4pqp3kbe50ULKyUL-21" value="GetImageWithFullThumbnails(id) - pobiera definicje zdjecia plus obrazy z ikonkami jezeli juz są&amp;nbsp;" style="whiteSpace=wrap;html=1;fillColor=#d5e8d4;strokeColor=#82b366;" vertex="1" parent="1">
          <mxGeometry x="790" y="585" width="320" height="60" as="geometry" />
        </mxCell>
        <mxCell id="tASh4pqp3kbe50ULKyUL-29" value="" style="edgeStyle=orthogonalEdgeStyle;rounded=0;orthogonalLoop=1;jettySize=auto;html=1;" edge="1" parent="1" source="tASh4pqp3kbe50ULKyUL-26" target="tASh4pqp3kbe50ULKyUL-28">
          <mxGeometry relative="1" as="geometry" />
        </mxCell>
        <mxCell id="tASh4pqp3kbe50ULKyUL-26" value="User Adds New Images" style="shape=or;whiteSpace=wrap;html=1;fillColor=#dae8fc;strokeColor=#6c8ebf;" vertex="1" parent="1">
          <mxGeometry x="650" y="770" width="80" height="80" as="geometry" />
        </mxCell>
        <mxCell id="tASh4pqp3kbe50ULKyUL-27" value="" style="endArrow=classic;html=1;rounded=0;exitX=1;exitY=0.5;exitDx=0;exitDy=0;entryX=0;entryY=0.5;entryDx=0;entryDy=0;entryPerimeter=0;" edge="1" parent="1" source="tASh4pqp3kbe50ULKyUL-6" target="tASh4pqp3kbe50ULKyUL-26">
          <mxGeometry width="50" height="50" relative="1" as="geometry">
            <mxPoint x="535" y="400" as="sourcePoint" />
            <mxPoint x="660" y="635" as="targetPoint" />
          </mxGeometry>
        </mxCell>
        <mxCell id="tASh4pqp3kbe50ULKyUL-28" value="GetImageWithThumbnails(ids)" style="whiteSpace=wrap;html=1;fillColor=#d5e8d4;strokeColor=#82b366;" vertex="1" parent="1">
          <mxGeometry x="790" y="780" width="320" height="60" as="geometry" />
        </mxCell>
        <mxCell id="tASh4pqp3kbe50ULKyUL-30" value="" style="endArrow=none;dashed=1;html=1;rounded=0;exitX=1;exitY=0.5;exitDx=0;exitDy=0;exitPerimeter=0;entryX=0;entryY=0.5;entryDx=0;entryDy=0;" edge="1" parent="1" source="tASh4pqp3kbe50ULKyUL-26" target="tASh4pqp3kbe50ULKyUL-32">
          <mxGeometry width="50" height="50" relative="1" as="geometry">
            <mxPoint x="810" y="590" as="sourcePoint" />
            <mxPoint x="800" y="720" as="targetPoint" />
          </mxGeometry>
        </mxCell>
        <mxCell id="tASh4pqp3kbe50ULKyUL-33" value="MQTT" style="edgeLabel;html=1;align=center;verticalAlign=middle;resizable=0;points=[];" vertex="1" connectable="0" parent="tASh4pqp3kbe50ULKyUL-30">
          <mxGeometry x="0.1966" y="3" relative="1" as="geometry">
            <mxPoint x="-4" y="9" as="offset" />
          </mxGeometry>
        </mxCell>
        <mxCell id="tASh4pqp3kbe50ULKyUL-31" value="" style="endArrow=none;dashed=1;html=1;rounded=0;entryX=1;entryY=0.5;entryDx=0;entryDy=0;entryPerimeter=0;exitX=0;exitY=0.5;exitDx=0;exitDy=0;" edge="1" parent="1" source="tASh4pqp3kbe50ULKyUL-32" target="tASh4pqp3kbe50ULKyUL-19">
          <mxGeometry width="50" height="50" relative="1" as="geometry">
            <mxPoint x="800" y="720" as="sourcePoint" />
            <mxPoint x="810" y="730" as="targetPoint" />
          </mxGeometry>
        </mxCell>
        <mxCell id="tASh4pqp3kbe50ULKyUL-34" value="MQTT" style="edgeLabel;html=1;align=center;verticalAlign=middle;resizable=0;points=[];" vertex="1" connectable="0" parent="tASh4pqp3kbe50ULKyUL-31">
          <mxGeometry x="-0.0345" y="-2" relative="1" as="geometry">
            <mxPoint x="-3" y="-10" as="offset" />
          </mxGeometry>
        </mxCell>
        <mxCell id="tASh4pqp3kbe50ULKyUL-32" value="if thumbnail in app - nothing require - MQTT provides all data&lt;br&gt;&lt;br&gt;if not in - GetImageWithThumbnails&lt;span style=&quot;background-color: initial;&quot;&gt;(id)&lt;/span&gt;" style="whiteSpace=wrap;html=1;fillColor=#d5e8d4;strokeColor=#82b366;" vertex="1" parent="1">
          <mxGeometry x="790" y="670" width="320" height="90" as="geometry" />
        </mxCell>
      </root>
    </mxGraphModel>
  </diagram>
</mxfile>
